<svg xmlns="http://www.w3.org/2000/svg" width="500" height="169" viewBox="0 0 500 169" version="1.1"><path d="M 85 58.500 L 85 84 87.250 83.985 C 89.058 83.972, 89.205 83.783, 88 83.022 C 86.745 82.229, 86.462 78.133, 86.266 57.991 L 86.032 33.908 97.569 34.067 C 103.915 34.155, 109.382 33.951, 109.720 33.613 C 110.057 33.276, 104.633 33, 97.667 33 L 85 33 85 58.500 M 231 58.500 L 231 84 234.750 83.840 C 238.442 83.682, 238.450 83.674, 235.250 83.277 L 232 82.873 232.014 60.687 C 232.021 48.484, 232.295 37.500, 232.623 36.278 C 233.194 34.147, 233.751 34.044, 246.359 33.747 L 259.500 33.437 245.250 33.218 L 231 33 231 58.500 M 291.015 38.750 C 291.024 42.026, 291.376 43.956, 291.833 43.237 C 292.274 42.542, 292.493 40.179, 292.319 37.987 L 292.004 34 297.419 34 C 300.815 34, 303.021 34.466, 303.338 35.250 C 303.639 35.997, 303.874 35.795, 303.921 34.750 C 303.989 33.255, 303.054 33, 297.500 33 L 291 33 291.015 38.750 M 261.405 35.854 C 262.453 37.035, 263.717 38, 264.214 38 C 265.622 38, 264.125 36.135, 261.694 34.860 C 259.515 33.717, 259.513 33.724, 261.405 35.854 M 115.894 40.523 C 117.604 45.888, 118.028 46.553, 117.491 43.031 C 117.200 41.123, 116.509 39.109, 115.954 38.554 C 115.276 37.876, 115.257 38.521, 115.894 40.523 M 266 61.300 C 266 75.756, 265.655 81.945, 264.800 82.800 C 263.867 83.733, 263.978 84, 265.300 84 C 266.847 84, 267 82.069, 267 62.500 C 267 50.675, 266.775 41, 266.500 41 C 266.225 41, 266 50.135, 266 61.300 M 303.272 46 C 303.272 48.475, 303.467 49.487, 303.706 48.250 C 303.944 47.013, 303.944 44.987, 303.706 43.750 C 303.467 42.513, 303.272 43.525, 303.272 46 M 101.939 45.559 C 104.063 45.963, 104.998 46.798, 105.311 48.571 C 105.688 50.712, 105.728 50.672, 105.622 48.262 C 105.517 45.893, 105.037 45.464, 102.250 45.250 C 99.158 45.012, 99.143 45.027, 101.939 45.559 M 126.092 47.402 C 124.632 48.956, 123.993 50.634, 124.281 52.152 C 124.690 54.303, 124.739 54.271, 124.864 51.773 C 125.032 48.413, 128.782 45.730, 132.685 46.177 L 135.500 46.500 135.774 64.426 C 135.983 78.099, 135.745 82.544, 134.774 83.161 C 133.845 83.750, 133.974 83.974, 135.250 83.985 C 136.857 83.999, 137 82.411, 137 64.500 L 137 45 132.674 45 C 129.400 45, 127.800 45.584, 126.092 47.402 M 141 64.500 L 141 84 143.750 83.864 C 146.108 83.747, 146.179 83.666, 144.250 83.294 C 142.014 82.864, 142 82.747, 142 64.464 L 142 46.068 152.750 45.746 L 163.500 45.425 152.250 45.212 L 141 45 141 64.500 M 172.855 45.745 C 186.216 46.375, 188 49.101, 188 68.877 C 188 81.347, 187.811 82.903, 186.250 83.311 C 184.933 83.655, 185.057 83.797, 186.750 83.884 C 188.986 83.999, 189 83.907, 189 69.450 C 189 53.669, 188.323 50.972, 183.385 47.088 C 181.155 45.334, 179.511 45.032, 173.115 45.199 L 165.500 45.397 172.855 45.745 M 198.306 47.581 C 195.503 50.158, 197.057 49.929, 200.116 47.314 C 201.333 46.274, 204.546 46.002, 213.116 46.216 L 224.500 46.500 224.774 64.426 C 224.983 78.099, 224.745 82.544, 223.774 83.161 C 222.845 83.750, 222.974 83.974, 224.250 83.985 C 225.857 83.999, 226 82.411, 226 64.500 L 226 45 213.556 45 C 201.570 45, 201.008 45.095, 198.306 47.581 M 249.250 45.703 C 253.903 46.101, 254 46.179, 254 49.500 C 254 52.794, 253.871 52.902, 249.494 53.287 L 244.987 53.684 249.744 53.592 L 254.500 53.500 254.500 49.500 L 254.500 45.500 249.500 45.398 L 244.500 45.296 249.250 45.703 M 277.441 46.468 C 276.374 47.276, 275.973 47.951, 276.550 47.968 C 277.127 47.986, 278.028 47.576, 278.550 47.057 C 279.072 46.539, 281.975 45.947, 285 45.742 L 290.500 45.370 284.941 45.185 C 281.349 45.065, 278.695 45.520, 277.441 46.468 M 309 64.500 L 309 84 311.250 83.985 C 313.057 83.972, 313.205 83.783, 312 83.023 C 310.758 82.239, 310.500 79.012, 310.500 64.288 L 310.500 46.500 321.500 45.948 L 332.500 45.395 320.750 45.198 L 309 45 309 64.500 M 334.297 45.795 C 333.635 46.216, 336.335 46.411, 340.297 46.228 C 350.528 45.756, 351.778 45.249, 343 45.131 C 338.875 45.076, 334.959 45.375, 334.297 45.795 M 364.067 47.429 C 362.812 48.764, 362.023 50.452, 362.314 51.179 C 362.664 52.054, 362.869 51.909, 362.921 50.750 C 362.964 49.788, 363.675 49, 364.500 49 C 365.325 49, 366 48.325, 366 47.500 C 366 45.375, 372.574 45.448, 373.393 47.582 C 374.585 50.688, 374.066 81.534, 372.800 82.800 C 371.867 83.733, 371.978 84, 373.300 84 C 374.842 84, 375 82.186, 375 64.500 L 375 45 370.674 45 C 367.387 45, 365.801 45.583, 364.067 47.429 M 379 64.500 L 379 84 381.750 83.864 C 384.141 83.745, 384.203 83.671, 382.228 83.291 L 379.955 82.855 380.228 64.678 L 380.500 46.500 393.240 46.220 C 407.470 45.908, 409.550 46.568, 412.376 52.299 C 413.443 54.462, 413.962 54.900, 413.977 53.650 C 413.990 52.633, 412.470 50.270, 410.600 48.400 L 407.200 45 393.100 45 L 379 45 379 64.500 M 351 46.719 C 351 47.306, 351.661 48.040, 352.468 48.350 C 354.105 48.977, 356.937 55.085, 357.116 58.372 C 357.209 60.074, 357.324 60.148, 357.691 58.742 C 358.389 56.066, 356.236 50.570, 353.471 47.973 C 352.112 46.696, 351 46.132, 351 46.719 M 117.272 51 C 117.272 53.475, 117.467 54.487, 117.706 53.250 C 117.944 52.013, 117.944 49.987, 117.706 48.750 C 117.467 47.513, 117.272 48.525, 117.272 51 M 194.500 54 C 194.120 55.729, 194.018 57.351, 194.273 57.606 C 194.528 57.861, 195.024 56.632, 195.375 54.875 C 196.209 50.707, 195.401 49.899, 194.500 54 M 99.783 54.235 C 101.470 55.048, 102.369 55.031, 103.233 54.167 C 104.122 53.278, 103.580 53.016, 100.950 53.068 C 97.710 53.131, 97.639 53.202, 99.783 54.235 M 272.206 64 C 272.170 69.775, 272.464 75.320, 272.859 76.322 C 273.253 77.324, 273.426 73.499, 273.243 67.822 C 272.776 53.372, 272.285 51.560, 272.206 64 M 287.250 57.031 C 285.245 57.837, 285 58.633, 285 64.345 C 285 71.291, 286.180 73.285, 289.500 71.947 C 291.247 71.243, 291.152 71.132, 288.750 71.070 C 286.039 71.001, 286 70.907, 286 64.500 C 286 58.667, 286.205 58, 288 58 C 289.100 58, 290 57.550, 290 57 C 290 56.450, 289.887 56.029, 289.750 56.063 C 289.613 56.098, 288.488 56.534, 287.250 57.031 M 414 69.500 L 414 83 408.530 83 L 403.060 83 402.780 70.250 L 402.500 57.500 397.500 57.422 L 392.500 57.344 397.250 57.724 L 402 58.105 402 71.052 L 402 84 408.500 84 L 415 84 415 70 C 415 62.300, 414.775 56, 414.500 56 C 414.225 56, 414 62.075, 414 69.500 M 156.250 57.631 C 157.800 58.088, 158 59.625, 158 71.073 C 158 78.183, 158.338 84.001, 158.750 84.002 C 159.162 84.003, 159.275 78.046, 159 70.763 C 158.535 58.444, 158.361 57.508, 156.500 57.318 C 154.943 57.160, 154.888 57.229, 156.250 57.631 M 207.345 58.543 C 207.019 59.392, 207.034 60.367, 207.376 60.710 C 207.719 61.053, 208 60.615, 208 59.736 C 208 58.858, 209.012 57.944, 210.250 57.706 L 212.500 57.272 210.219 57.136 C 208.964 57.061, 207.671 57.694, 207.345 58.543 M 325.250 57.631 C 326.800 58.088, 327 59.625, 327 71.073 L 327 84 330.750 83.840 C 334.400 83.684, 334.414 83.669, 331.279 83.279 L 328.059 82.878 327.779 70.201 C 327.519 58.364, 327.368 57.511, 325.500 57.320 C 323.944 57.160, 323.889 57.229, 325.250 57.631 M 169.867 58.750 C 169.794 59.163, 169.840 64.514, 169.970 70.643 C 170.181 80.582, 170.006 81.901, 168.353 82.862 C 166.632 83.863, 166.660 83.941, 168.750 83.970 C 170.970 84, 171 83.824, 171 71 C 171 63.850, 170.775 58, 170.500 58 C 170.225 58, 169.940 58.337, 169.867 58.750 M 213 64.500 C 213 70.891, 212.954 71.002, 210.250 71.136 C 207.726 71.261, 207.694 71.309, 209.865 71.721 C 211.166 71.968, 212.616 71.784, 213.086 71.314 C 214.267 70.133, 215.006 58, 213.897 58 C 213.404 58, 213 60.925, 213 64.500 M 291 64 C 291 67.483, 291.214 70.120, 291.475 69.858 C 292.228 69.105, 292.389 59.055, 291.659 58.326 C 291.296 57.963, 291 60.517, 291 64 M 320.755 60.500 C 321.018 61.875, 321.406 63, 321.617 63 C 321.827 63, 322 61.875, 322 60.500 C 322 59.125, 321.612 58, 321.139 58 C 320.665 58, 320.492 59.125, 320.755 60.500 M 362.378 69 C 362.378 75.325, 362.541 77.912, 362.739 74.750 C 362.937 71.587, 362.937 66.412, 362.739 63.250 C 362.541 60.087, 362.378 62.675, 362.378 69 M 339 70.927 C 339 81.445, 338.793 82.907, 337.250 83.311 C 335.933 83.655, 336.057 83.797, 337.750 83.884 C 339.970 83.998, 340 83.831, 340 71.500 C 340 64.625, 339.775 59, 339.500 59 C 339.225 59, 339 64.367, 339 70.927 M 345.382 70.500 C 345.384 77.100, 345.546 79.670, 345.741 76.211 C 345.937 72.752, 345.936 67.352, 345.738 64.211 C 345.540 61.070, 345.380 63.900, 345.382 70.500 M 153 71.434 L 153 82.867 150.250 83.284 C 147.690 83.671, 147.725 83.711, 150.750 83.850 L 154 84 154 72 C 154 65.400, 153.775 60, 153.500 60 C 153.225 60, 153 65.145, 153 71.434 M 176.355 68.500 C 176.352 73.450, 176.521 75.601, 176.731 73.280 C 176.940 70.959, 176.943 66.909, 176.736 64.280 C 176.530 61.651, 176.358 63.550, 176.355 68.500 M 120.196 68.346 C 119.995 75.360, 118.093 80.273, 115.053 81.631 C 114.199 82.013, 109.450 82.629, 104.500 83.001 L 95.500 83.676 103.703 83.838 C 113.182 84.025, 116.261 82.933, 119.072 78.384 C 120.706 75.740, 121.027 73.806, 120.743 68.306 L 120.392 61.500 120.196 68.346 M 207.272 66 C 207.272 68.475, 207.467 69.487, 207.706 68.250 C 207.944 67.013, 207.944 64.987, 207.706 63.750 C 207.467 62.513, 207.272 63.525, 207.272 66 M 391.336 69 C 391.336 73.125, 391.513 74.813, 391.728 72.750 C 391.944 70.688, 391.944 67.313, 391.728 65.250 C 391.513 63.188, 391.336 64.875, 391.336 69 M 303.232 66 C 303.232 67.925, 303.438 68.713, 303.689 67.750 C 303.941 66.787, 303.941 65.213, 303.689 64.250 C 303.438 63.288, 303.232 64.075, 303.232 66 M 357 73.417 C 357 80.014, 356.626 82.984, 355.750 83.338 C 355.003 83.639, 355.205 83.874, 356.250 83.921 C 357.805 83.991, 358 82.887, 358 74 C 358 68.500, 357.775 64, 357.500 64 C 357.225 64, 357 68.237, 357 73.417 M 99.250 65.689 C 100.213 65.941, 101.787 65.941, 102.750 65.689 C 103.713 65.438, 102.925 65.232, 101 65.232 C 99.075 65.232, 98.287 65.438, 99.250 65.689 M 106.250 65.631 C 108.147 66.190, 108.693 70.490, 106.975 71.342 C 106.411 71.621, 106.524 71.734, 107.225 71.592 C 107.926 71.450, 108.500 70.027, 108.500 68.430 C 108.500 66.263, 107.993 65.475, 106.500 65.321 C 104.946 65.161, 104.890 65.230, 106.250 65.631 M 250.945 65.559 C 253.474 66.039, 253.946 66.640, 254.281 69.809 L 254.671 73.500 254.586 69.500 C 254.505 65.725, 254.317 65.486, 251.250 65.250 C 248.147 65.011, 248.133 65.025, 250.945 65.559 M 320.819 74.502 C 320.643 79.728, 320.837 84.003, 321.250 84.002 C 321.663 84.001, 322 79.725, 322 74.500 C 322 69.275, 321.806 65, 321.569 65 C 321.331 65, 320.994 69.276, 320.819 74.502 M 124.300 71 C 124.300 74.025, 124.487 75.263, 124.716 73.750 C 124.945 72.237, 124.945 69.763, 124.716 68.250 C 124.487 66.737, 124.300 67.975, 124.300 71 M 194.447 73.374 C 194.893 77.070, 195.617 78.818, 196.329 77.917 C 196.510 77.688, 196.056 75.700, 195.319 73.500 L 193.980 69.500 194.447 73.374 M 302.832 77.002 C 302.649 80.853, 302.837 84.003, 303.250 84.002 C 303.663 84.001, 304 80.850, 304 77 C 304 73.150, 303.812 70, 303.582 70 C 303.352 70, 303.015 73.151, 302.832 77.002 M 99.762 71.707 C 101.006 71.946, 102.806 71.937, 103.762 71.687 C 104.718 71.437, 103.700 71.241, 101.500 71.252 C 99.300 71.263, 98.518 71.468, 99.762 71.707 M 254 80 C 254 82.200, 254.349 84, 254.776 84 C 255.203 84, 255.381 82.200, 255.171 80 C 254.962 77.800, 254.612 76, 254.395 76 C 254.178 76, 254 77.800, 254 80 M 391.232 81 C 391.232 82.925, 391.438 83.713, 391.689 82.750 C 391.941 81.787, 391.941 80.213, 391.689 79.250 C 391.438 78.287, 391.232 79.075, 391.232 81 M 198.306 81.440 C 199.849 82.848, 201.874 83.993, 202.806 83.985 C 204.567 83.970, 204.192 83.681, 197.872 80.190 C 195.821 79.056, 195.879 79.225, 198.306 81.440 M 276.306 81.496 C 277.849 82.873, 279.874 83.964, 280.806 83.921 C 282.191 83.857, 282.226 83.736, 281 83.259 C 280.175 82.938, 279.050 82.136, 278.500 81.478 C 277.950 80.819, 276.600 79.990, 275.500 79.635 C 273.944 79.134, 274.122 79.547, 276.306 81.496 M 176 83.201 C 176 83.640, 177.575 84, 179.500 84 C 181.425 84, 183 83.824, 183 83.609 C 183 83.395, 181.425 83.035, 179.500 82.810 C 177.575 82.585, 176 82.761, 176 83.201 M 346.250 83.689 C 347.212 83.941, 348.788 83.941, 349.750 83.689 C 350.712 83.438, 349.925 83.232, 348 83.232 C 346.075 83.232, 345.288 83.438, 346.250 83.689 M 148.250 88.689 C 149.213 88.941, 150.787 88.941, 151.750 88.689 C 152.713 88.438, 151.925 88.232, 150 88.232 C 148.075 88.232, 147.287 88.438, 148.250 88.689 M 170.250 88.716 C 171.762 88.945, 174.238 88.945, 175.750 88.716 C 177.262 88.487, 176.025 88.300, 173 88.300 C 169.975 88.300, 168.738 88.487, 170.250 88.716 M 184.250 88.689 C 185.213 88.941, 186.787 88.941, 187.750 88.689 C 188.713 88.438, 187.925 88.232, 186 88.232 C 184.075 88.232, 183.287 88.438, 184.250 88.689 M 202.250 88.743 C 206.512 88.931, 213.488 88.931, 217.750 88.743 C 222.012 88.556, 218.525 88.402, 210 88.402 C 201.475 88.402, 197.988 88.556, 202.250 88.743 M 244.250 88.716 C 245.762 88.945, 248.238 88.945, 249.750 88.716 C 251.262 88.487, 250.025 88.300, 247 88.300 C 243.975 88.300, 242.738 88.487, 244.250 88.716 M 263.750 88.706 C 264.988 88.944, 267.012 88.944, 268.250 88.706 C 269.488 88.467, 268.475 88.272, 266 88.272 C 263.525 88.272, 262.512 88.467, 263.750 88.706 M 273.728 88.722 C 275.503 88.943, 278.653 88.946, 280.728 88.730 C 282.802 88.513, 281.350 88.333, 277.500 88.328 C 273.650 88.324, 271.952 88.501, 273.728 88.722 M 293.789 88.741 C 297.248 88.937, 302.648 88.936, 305.789 88.738 C 308.930 88.540, 306.100 88.380, 299.500 88.382 C 292.900 88.384, 290.330 88.546, 293.789 88.741 M 132.583 93.643 C 131.631 96.126, 132.681 96.465, 133.954 94.086 C 134.568 92.938, 134.653 92, 134.142 92 C 133.632 92, 132.930 92.739, 132.583 93.643 M 173.435 101.847 C 165.784 103.219, 179.438 103.469, 249.429 103.238 L 328.757 102.976 331.695 110.238 L 334.632 117.500 371.566 117.519 L 408.500 117.539 372.587 117.257 C 349.879 117.078, 336.219 116.596, 335.435 115.946 C 334.754 115.381, 333.900 113.699, 333.537 112.209 C 333.175 110.719, 332.118 107.824, 331.189 105.776 L 329.500 102.052 303.500 102 C 289.200 101.971, 254.521 101.847, 226.435 101.724 C 198.350 101.601, 174.500 101.656, 173.435 101.847 M 50 109.441 C 50 113.534, 50.337 117.092, 50.750 117.349 C 51.163 117.606, 51.353 114.518, 51.174 110.487 C 50.862 103.493, 50.954 103.139, 53.174 102.716 C 55.262 102.318, 55.219 102.258, 52.750 102.136 L 50 102 50 109.441 M 68.500 102.714 C 101.405 103.416, 130.002 103.433, 130.001 102.750 C 130 102.338, 113.238 102.098, 92.750 102.218 C 72.262 102.338, 61.350 102.562, 68.500 102.714 M 410 102.982 L 448.500 103.500 448.500 110 L 448.500 116.500 432 117.050 L 415.500 117.601 432.500 117.550 L 449.500 117.500 449.792 109.750 L 450.084 102 410.792 102.232 L 371.500 102.464 410 102.982 M 166.745 110.986 L 164.160 116.975 127.330 117.257 L 90.500 117.538 127.939 117.519 L 165.377 117.500 167.736 111.631 C 170.860 103.860, 170.047 103.331, 166.745 110.986 M 174.667 107.667 C 173.241 109.092, 174.099 110.018, 175.934 109.035 C 177.107 108.407, 186.947 108, 200.934 108 C 224.777 108, 224.509 107.954, 224.077 112 C 223.934 113.333, 224.031 113.333, 224.943 112 C 225.508 111.175, 225.976 109.713, 225.985 108.750 C 225.999 107.129, 224.133 107, 200.667 107 C 186.733 107, 175.033 107.300, 174.667 107.667 M 274.015 108.733 C 274.024 109.705, 274.475 111.175, 275.018 112 C 275.789 113.170, 275.950 112.950, 275.753 111 L 275.500 108.500 299.839 108.232 C 323.523 107.971, 324.192 108.018, 324.706 109.982 C 324.996 111.092, 325.616 112, 326.084 112 C 326.553 112, 326.561 110.987, 326.104 109.750 C 325.274 107.507, 325.196 107.499, 299.636 107.233 C 275.689 106.984, 274.001 107.083, 274.015 108.733 M 171.273 116.250 L 169.279 121.500 129.639 121.761 L 90 122.023 90.136 124.761 C 90.253 127.102, 90.335 127.175, 90.704 125.262 L 91.136 123.023 130.232 122.762 L 169.329 122.500 170.998 119.500 C 172.663 116.508, 174.384 111, 173.653 111 C 173.441 111, 172.370 113.362, 171.273 116.250 M 327.257 115.313 C 327.362 116.860, 328.021 118.603, 328.723 119.185 C 330.362 120.546, 330.331 119.988, 328.534 115.865 C 327.092 112.555, 327.071 112.546, 327.257 115.313 M 276.573 116 C 276.941 117.375, 277.659 119.175, 278.169 120 C 278.813 121.042, 278.892 120.737, 278.427 119 C 278.059 117.625, 277.341 115.825, 276.831 115 C 276.187 113.958, 276.108 114.263, 276.573 116 M 221.947 117.639 C 221.395 119.090, 221.130 120.463, 221.356 120.690 C 221.583 120.917, 222.247 119.729, 222.832 118.051 C 224.133 114.321, 223.348 113.955, 221.947 117.639 M 59.206 117.741 C 62.895 117.932, 69.195 117.934, 73.206 117.743 C 77.218 117.553, 74.200 117.396, 66.500 117.395 C 58.800 117.393, 55.518 117.549, 59.206 117.741 M 330.862 122.263 C 331.283 122.683, 347.123 122.908, 366.063 122.763 L 400.500 122.499 365.299 121.999 C 345.939 121.725, 330.442 121.844, 330.862 122.263 M 404.991 122.741 C 406.911 122.973, 408.817 123.689, 409.226 124.331 C 409.714 125.098, 409.975 124.898, 409.985 123.750 C 409.997 122.331, 409.197 122.030, 405.750 122.160 C 401.700 122.313, 401.664 122.340, 404.991 122.741 M 409 133 L 409 136 347.557 136 L 286.113 136 284.557 133.777 C 282.801 131.271, 282.458 132.119, 284.035 135.066 C 285.042 136.946, 286.802 137, 347.535 137 L 410 137 410 133.500 C 410 131.575, 409.775 130, 409.500 130 C 409.225 130, 409 131.350, 409 133 M 90.015 134.750 L 90 137 152.441 137 C 186.784 137, 215.091 136.662, 215.346 136.250 C 215.601 135.838, 187.936 135.500, 153.868 135.500 C 99.898 135.500, 91.805 135.307, 90.979 134 C 90.217 132.795, 90.028 132.942, 90.015 134.750" stroke="none" fill="#e3fbfc" fill-rule="evenodd"/><path d="M 86.266 57.998 C 86.462 78.142, 86.745 82.227, 88 83.007 C 89.746 84.094, 109.048 83.258, 113.539 81.902 C 118.080 80.530, 120 76.450, 120 68.167 C 120 63.562, 119.529 60.672, 118.634 59.776 C 117.744 58.886, 117.247 55.897, 117.210 51.203 C 117.179 47.239, 116.647 42.459, 116.026 40.580 C 114.204 35.058, 111.948 34.233, 98.215 34.068 L 86.033 33.922 86.266 57.998 M 232.630 36.250 C 232.299 37.487, 232.021 48.451, 232.014 60.614 L 232 82.728 236.693 83.371 C 239.531 83.760, 241.803 83.597, 242.443 82.957 C 243.024 82.376, 243.521 78.210, 243.547 73.700 L 243.593 65.500 249.047 65.500 L 254.500 65.500 254.665 73.307 C 254.756 77.601, 255.079 81.764, 255.384 82.557 C 256.067 84.339, 263.080 84.520, 264.800 82.800 C 265.656 81.944, 266 75.656, 266 60.851 L 266 40.101 262.750 37.055 L 259.500 34.009 246.367 34.005 C 233.590 34, 233.217 34.061, 232.630 36.250 M 292.323 38.033 C 292.791 43.948, 290.941 46, 285.143 46 C 279.491 46, 275.019 47.849, 275.008 50.191 C 275.004 51.121, 274.550 52.160, 274 52.500 C 272.894 53.183, 272.623 70.867, 273.641 75.953 C 274.050 77.998, 275.097 79.466, 276.536 80.014 C 277.776 80.485, 278.987 81.462, 279.227 82.185 C 279.748 83.752, 300.651 84.749, 302.123 83.277 C 303.055 82.345, 304.113 37.518, 303.258 35.250 C 302.961 34.463, 300.790 34, 297.395 34 L 292.004 34 292.323 38.033 M 98.245 46.155 C 95.561 48.839, 97.862 55, 101.548 55 C 103.555 55, 106.213 50.532, 105.827 47.808 C 105.580 46.066, 104.763 45.428, 102.495 45.205 C 100.842 45.043, 98.930 45.470, 98.245 46.155 M 244.245 46.155 C 242.571 47.829, 242.668 51.480, 244.426 52.939 C 245.210 53.590, 247.798 53.982, 250.176 53.811 L 254.500 53.500 254.500 49.500 L 254.500 45.500 249.995 45.205 C 247.356 45.033, 244.974 45.426, 244.245 46.155 M 127.032 47.773 C 124.815 49.568, 124.712 50.267, 124.568 64.573 C 124.379 83.266, 124.501 83.676, 130.152 83.406 C 132.543 83.291, 134.848 83.153, 135.273 83.099 C 135.697 83.044, 135.922 74.787, 135.773 64.750 L 135.500 46.500 132.423 46.200 C 130.532 46.015, 128.455 46.621, 127.032 47.773 M 142 64.383 L 142 82.767 144.398 83.225 C 145.717 83.477, 148.192 83.479, 149.898 83.228 L 153 82.773 153 71.578 C 153 59.765, 154.121 56.065, 157.325 57.295 C 158.673 57.812, 158.986 60.024, 159.220 70.707 L 159.500 83.500 162.704 83.810 C 164.466 83.980, 166.875 83.602, 168.057 82.969 C 170.102 81.875, 170.190 81.248, 169.854 70.185 L 169.500 58.551 172.230 57.589 C 173.732 57.060, 175.307 56.976, 175.730 57.402 C 176.154 57.827, 176.504 63.642, 176.508 70.322 L 176.517 82.469 180.409 83.101 C 188.071 84.347, 188 84.481, 188 68.834 C 188 46.273, 187.678 46, 161.035 46 L 142 46 142 64.383 M 198.892 48.268 C 193.326 53.033, 192.522 66.658, 197.093 78.777 C 197.243 79.175, 198.429 80.336, 199.729 81.359 C 201.482 82.737, 204.395 83.348, 211.017 83.724 C 215.926 84.003, 221.091 83.943, 222.494 83.591 L 225.045 82.951 224.772 64.725 L 224.500 46.500 213 46.268 C 202.366 46.053, 201.304 46.203, 198.892 48.268 M 310.393 47.417 C 310.102 48.178, 310.006 56.287, 310.181 65.438 C 310.534 83.867, 310.670 84.233, 317 83.761 L 320.500 83.500 321.021 73.500 C 321.308 68, 321.240 62.310, 320.871 60.855 C 320.275 58.507, 320.537 58.143, 323.203 57.609 C 324.854 57.279, 326.609 57.258, 327.103 57.563 C 327.596 57.868, 328 63.667, 328 70.450 L 328 82.781 331.750 83.225 C 339.025 84.086, 339 84.128, 339 71.006 C 339 61.495, 339.303 58.993, 340.584 57.930 C 341.735 56.975, 342.623 56.904, 343.834 57.669 C 345.239 58.558, 345.500 60.622, 345.500 70.862 L 345.500 83.002 348 83.084 C 349.375 83.130, 351.497 83.278, 352.715 83.414 C 353.934 83.550, 355.376 83.385, 355.921 83.049 C 356.476 82.706, 356.988 76.744, 357.088 69.469 C 357.222 59.578, 356.894 55.669, 355.704 53 C 352.681 46.221, 352.284 46.112, 330.513 46.071 C 314.737 46.042, 310.821 46.304, 310.393 47.417 M 366 47.500 C 366 48.325, 365.325 49, 364.500 49 C 363.675 49, 362.955 49.788, 362.901 50.750 C 362.582 56.397, 363.060 82.393, 363.491 82.824 C 364.439 83.773, 371.484 83.691, 372.750 82.717 C 373.660 82.017, 374 77.316, 374 65.459 C 374 56.497, 373.727 48.452, 373.393 47.582 C 372.574 45.448, 366 45.375, 366 47.500 M 380.667 46.667 C 380.300 47.033, 380 55.302, 380 65.042 L 380 82.750 383.125 83.375 C 384.844 83.719, 387.319 84, 388.625 84 C 391.262 84, 391.101 84.982, 391.181 68.377 C 391.205 63.360, 391.555 58.720, 391.959 58.066 C 392.412 57.334, 394.576 56.997, 397.597 57.189 L 402.500 57.500 402.780 70.250 L 403.060 83 408.530 83 L 414 83 414 69.565 C 414 54.965, 413.391 52.194, 409.364 48.462 C 406.832 46.115, 406.115 46, 394.021 46 C 387.043 46, 381.033 46.300, 380.667 46.667 M 287.219 57.115 C 285.247 57.844, 285 58.641, 285 64.268 C 285 71.027, 286.031 73.066, 289.051 72.276 C 291.304 71.687, 291.913 70.024, 292.144 63.837 C 292.351 58.290, 290.579 55.872, 287.219 57.115 M 207.667 57.667 C 206.833 58.500, 206.787 68.282, 207.607 70.418 C 208.247 72.087, 212.505 72.610, 213.418 71.132 C 213.714 70.655, 214.141 67.544, 214.368 64.220 C 214.745 58.713, 214.592 58.125, 212.641 57.602 C 209.807 56.841, 208.475 56.859, 207.667 57.667 M 97.551 66.838 C 96.304 70.770, 97.885 72.116, 103.375 71.797 C 108.337 71.509, 108.500 71.404, 108.500 68.500 C 108.500 65.588, 108.348 65.492, 103.324 65.229 C 98.998 65.003, 98.050 65.267, 97.551 66.838 M 135.881 89.073 C 135.371 89.389, 134.771 90.514, 134.548 91.573 C 134.325 92.633, 133.210 95.391, 132.071 97.702 C 130.932 100.013, 130 102.263, 130.001 102.702 C 130.001 103.141, 113.239 103.275, 92.751 103 C 72.263 102.725, 54.468 102.646, 53.208 102.825 C 51.037 103.133, 50.931 103.517, 51.208 110.054 L 51.500 116.958 71 117.134 C 81.725 117.231, 107.049 117.240, 127.275 117.155 L 164.050 117 167.468 109.500 C 169.885 104.197, 171.416 102, 172.693 101.998 C 215.438 101.960, 283.865 101.961, 303.500 102 L 329.500 102.052 331.189 105.776 C 332.118 107.824, 333.175 110.719, 333.537 112.209 C 333.900 113.699, 334.759 115.385, 335.447 115.956 C 337.074 117.306, 446.829 117.571, 448.172 116.228 C 448.687 115.713, 448.972 112.638, 448.804 109.396 L 448.500 103.500 409 102.959 C 387.275 102.662, 369.387 102.325, 369.250 102.209 C 369.113 102.094, 369 101.303, 369 100.450 C 369 99.598, 368.234 97.461, 367.297 95.700 C 366.360 93.940, 365.697 91.971, 365.823 91.325 C 365.950 90.679, 365.483 89.798, 364.786 89.368 C 363.349 88.480, 137.312 88.189, 135.881 89.073 M 175.828 109.036 C 174.909 109.573, 173.843 111.438, 173.460 113.180 C 173.078 114.923, 171.991 117.733, 171.047 119.424 L 169.329 122.500 130.164 122.762 C 99.861 122.964, 90.991 123.303, 90.962 124.262 C 90.941 124.943, 90.711 127.075, 90.450 129 C 89.511 135.928, 85.354 135.500, 153.597 135.500 L 215.267 135.500 218.649 126.500 C 220.508 121.550, 222.455 116.600, 222.975 115.500 C 223.953 113.430, 224.323 111.409, 224.118 109.250 C 223.971 107.694, 178.474 107.492, 175.828 109.036 M 275.557 108.908 C 274.948 109.892, 279.812 123.720, 283.327 131 L 285.500 135.500 347.250 135.758 L 409 136.015 409.157 133.258 C 409.243 131.741, 409.400 129.292, 409.507 127.816 C 409.613 126.340, 409.386 124.625, 409.003 124.005 C 408.504 123.198, 397.370 122.902, 369.784 122.964 L 331.262 123.049 329.417 120.275 C 328.403 118.749, 327.414 116.383, 327.221 115.019 C 327.028 113.654, 326.529 112.304, 326.112 112.019 C 325.695 111.733, 325.064 110.713, 324.708 109.750 C 324.118 108.150, 322.009 108, 300.090 108 C 286.800 108, 275.868 108.405, 275.557 108.908" stroke="none" fill="#fbfbfb" fill-rule="evenodd"/></svg>